<svg width="2667" height="840" fill="none" xmlns="http://www.w3.org/2000/svg"><g clip-path="url(#clip0)"><path d="M1028.42 840.666l-143.998-224c-2.5-4.5-8-7.5-13-7.5-5.5 0-11 3-13.5 7.5l-144 224c-1.5 2.5-3 6-3 9 0 2 1 5.5 2 7.5 2.5 4.5 9 8 14 8h288.498c5.5 0 11-3 14-8 1-2 2-5.5 2-7.5 0-3-1.5-6.5-3-9zm-156.998-185.5l42.5 66h-42.5l-32 32-19.5-19 51.5-79zM2621 840.666l-144-224c-2.5-4.5-8-7.5-13-7.5-5.5 0-11 3-13.5 7.5l-144 224c-1.5 2.5-3 6-3 9 0 2 1 5.5 2 7.5 2.5 4.5 9 8 14 8H2608c5.5 0 11-3 14-8 1-2 2-5.5 2-7.5 0-3-1.5-6.5-3-9zm-157-185.5l42.5 66H2464l-32 32-19.5-19 51.5-79zM435.5 845.084l-97-148.5c-5.5-9-20-9-25.5 0l-16.5 25 34 53c1 2 .5 4.5-1.5 5.5l-6.5 4.5c-2 1-4.5.5-5.5-1.5l-30-46.5-35.5-55.5c-6-9.5-21.5-9.5-27.5 0l-104 162.5c-6 9.5 1 22 13 22h290.5c11 0 18-11.5 12-20.5zM1826.97 834.444l-25.31-29.25h10.12c7.31 0 11.25-8.156 6.75-13.5l-26.72-31.5h12.38c6.18 0 9.28-6.187 5.62-10.406l-37.97-41.063c-2.81-3.093-8.15-3.093-10.97 0l-37.96 41.063c-3.66 4.219-.57 10.406 5.62 10.406h12.66l-26.72 31.5c-4.78 5.344-.85 13.5 6.47 13.5h10.12l-25.31 29.25c-5.34 6.188-1.13 15.75 7.03 15.75h107.16c8.15 0 12.37-9.562 7.03-15.75z" fill="#099268"/><path d="M1878.97 834.444l-25.31-29.25h10.12c7.31 0 11.25-8.156 6.75-13.5l-26.72-31.5h12.38c6.18 0 9.28-6.187 5.62-10.406l-37.97-41.063c-2.81-3.093-8.15-3.093-10.97 0l-37.96 41.063c-3.66 4.219-.57 10.406 5.62 10.406h12.66l-26.72 31.5c-4.78 5.344-.85 13.5 6.47 13.5h10.12l-25.31 29.25c-5.34 6.188-1.13 15.75 7.03 15.75h107.16c8.15 0 12.37-9.562 7.03-15.75zM2033.97 834.444l-25.31-29.25h10.12c7.31 0 11.25-8.156 6.75-13.5l-26.72-31.5h12.38c6.18 0 9.28-6.187 5.62-10.406l-37.97-41.063c-2.81-3.093-8.15-3.093-10.97 0l-37.96 41.063c-3.66 4.219-.57 10.406 5.62 10.406h12.66l-26.72 31.5c-4.78 5.344-.85 13.5 6.47 13.5h10.12l-25.31 29.25c-5.34 6.188-1.13 15.75 7.03 15.75h107.16c8.15 0 12.37-9.562 7.03-15.75zM2264.97 834.444l-25.31-29.25h10.12c7.31 0 11.25-8.156 6.75-13.5l-26.72-31.5h12.38c6.18 0 9.28-6.187 5.62-10.406l-37.97-41.063c-2.81-3.093-8.15-3.093-10.97 0l-37.96 41.063c-3.66 4.219-.57 10.406 5.62 10.406h12.66l-26.72 31.5c-4.78 5.344-.85 13.5 6.47 13.5h10.12l-25.31 29.25c-5.34 6.188-1.13 15.75 7.03 15.75h107.16c8.15 0 12.37-9.562 7.03-15.75zM765.968 834.444l-25.312-29.25h10.125c7.312 0 11.25-8.156 6.75-13.5l-26.719-31.5h12.375c6.188 0 9.281-6.187 5.625-10.406l-37.969-41.063c-2.812-3.093-8.156-3.093-10.968 0l-37.969 41.063c-3.656 4.219-.563 10.406 5.625 10.406h12.656l-26.719 31.5c-4.781 5.344-.843 13.5 6.469 13.5h10.125l-25.312 29.25c-5.344 6.188-1.125 15.75 7.031 15.75h107.156c8.156 0 12.375-9.562 7.031-15.75zM610.968 834.444l-25.312-29.25h10.125c7.312 0 11.25-8.156 6.75-13.5l-26.719-31.5h12.375c6.188 0 9.281-6.187 5.625-10.406l-37.969-41.063c-2.812-3.093-8.156-3.093-10.968 0l-37.969 41.063c-3.656 4.219-.563 10.406 5.625 10.406h12.656l-26.719 31.5c-4.781 5.344-.843 13.5 6.469 13.5h10.125l-25.312 29.25c-5.344 6.188-1.125 15.75 7.031 15.75h107.156c8.156 0 12.375-9.562 7.031-15.75z" fill="#099268"/><path d="M562.968 834.444l-25.312-29.25h10.125c7.312 0 11.25-8.156 6.75-13.5l-26.719-31.5h12.375c6.188 0 9.281-6.187 5.625-10.406l-37.969-41.063c-2.812-3.093-8.156-3.093-10.968 0l-37.969 41.063c-3.656 4.219-.563 10.406 5.625 10.406h12.656l-26.719 31.5c-4.781 5.344-.843 13.5 6.469 13.5h10.125l-25.312 29.25c-5.344 6.188-1.125 15.75 7.031 15.75h107.156c8.156 0 12.375-9.562 7.031-15.75zM181.968 834.444l-25.312-29.25h10.125c7.312 0 11.25-8.156 6.75-13.5l-26.719-31.5h12.375c6.188 0 9.281-6.187 5.625-10.406l-37.969-41.063c-2.812-3.093-8.156-3.093-10.968 0l-37.969 41.063c-3.656 4.219-.563 10.406 5.625 10.406h12.656l-26.718 31.5c-4.782 5.344-.844 13.5 6.468 13.5h10.125l-25.312 29.25c-5.344 6.188-1.125 15.75 7.031 15.75h107.156c8.156 0 12.375-9.562 7.031-15.75z" fill="#099268"/><path d="M1494 758.208h56v49.014h-56v-49.014z" fill="#fff" fill-opacity=".5"/><path d="M1592.5 778.447l-14.5-13v-34.25c0-2-2-4-4-4h-16c-2.25 0-4 2-4 4v13l-25.5-22.25c-1.5-1.5-4.5-2.75-6.5-2.75-2.25 0-5.25 1.25-6.75 2.75l-64 56.5c-.75.5-1.5 2-1.5 3 0 .75.5 2 1.25 2.5l5.25 6c.75.75 2 1.25 3 1.25.75 0 2-.5 2.75-1l4-3.5v52.5c0 4.5 3.5 8 8 8h96c4.25 0 8-3.5 8-8v-52.5l3.75 3.5c.75.5 2 1 2.75 1 1 0 2.25-.5 3-1.25l5.25-6c.5-.5 1-1.75 1.25-2.5-.25-1-.75-2.5-1.5-3zm-54.5 15.5c-.25 3-2.5 5.25-5.5 5.25h-21.25c-3 0-5.25-2.25-5.25-5.25v-21.25c0-3 2.25-5.25 5.25-5.5h21.25c3 .25 5.25 2.5 5.5 5.5v21.25z" fill="#099268"/><path d="M1279 835.338c-.5 2.125.88 4.25 3 4.875h1c1.75 0 3.38-1.125 3.88-3l3.12-12.625-6.62-6.5-4.38 17.25zm1.88-24.5l5.25-20c.25-1-.5-2-1.5-2.375-5.5-1.25-11.13 2-12.5 7.25l-3.13 12.25c-.25 1 .38 2.125 1.5 2.375l7.88 1.875c1.12.25 2.25-.375 2.5-1.375zm34.12-14.625h-2c-1.12 0-2 1-2 2v2h-4.37l-5.88-5.75c-1.37-1.375-3.25-2.25-5.25-2.25-3.37 0-6.25 2.375-7.12 5.625l-3.38 13.5v.875c0 1 .5 2.25 1.13 2.875l10.87 10.875v10.25c0 2.25 1.75 4 4 4 2.13 0 4-1.75 4-4v-10.25c0-2.125-.87-4.125-2.37-5.75l-5.88-5.75c0-.125 0-.125.13-.25l2.37-9.875 2.88 2.75c.75.75 1.75 1.25 2.75 1.25h6v30c0 1 1 2 2 2h2c1.12 0 2-1 2-2v-40.125c.12-1-.88-2-1.88-2zm-16-8c3.25 0 6-2.625 6-6 0-3.25-2.75-6-6-6-3.37 0-6 2.75-6 6 0 3.375 2.63 6 6 6zM550.963 820.805c-1.602 1.041-3.524 1.602-5.525 1.602-4.565 0-8.409-2.963-9.77-7.047-7.688 2.002-13.293 9.049-13.293 17.297v2.562a2.53 2.53 0 0 1-2.563-2.562v-19.219c0-3.523-2.882-6.406-6.406-6.406a6.374 6.374 0 0 0-6.406 6.406v3.844a2.53 2.53 0 0 0 2.562 2.562c1.362 0 2.563-1.121 2.563-2.562v-3.844c0-.64.561-1.281 1.281-1.281.641 0 1.282.641 1.282 1.281v19.219a7.689 7.689 0 0 0 7.687 7.687h19.219c.64 0 1.281-.56 1.281-1.281v-1.281c0-1.361-1.201-2.563-2.563-2.563h-5.124l12.412-8.248 2.802 8.328.16.801v2.963c0 .721.561 1.281 1.282 1.281h2.562c.641 0 1.282-.56 1.282-1.281V836.1c0-.801-.161-1.681-.401-2.482l-4.324-12.813zm3.443-16.336h-1.761c-1.122-2.962-3.924-5.125-7.207-5.125-3.364 0-6.167 2.163-7.288 5.125h-1.681a3.845 3.845 0 0 0-3.844 3.844c0 2.162 1.682 3.844 3.844 3.844h1.281c0 4.324 3.363 7.687 7.688 7.687 4.244 0 7.687-3.363 7.687-7.687h1.281a3.845 3.845 0 0 0 3.844-3.844c0-2.082-1.762-3.844-3.844-3.844zm-12.172 4.485c-.72 0-1.281-.561-1.281-1.281 0-.641.561-1.282 1.281-1.282.641 0 1.282.641 1.282 1.282 0 .72-.641 1.281-1.282 1.281zm6.407 0a1.266 1.266 0 0 1-1.282-1.281c0-.641.561-1.282 1.282-1.282.64 0 1.281.641 1.281 1.282 0 .72-.641 1.281-1.281 1.281zM1040.94 828.222H1038c-3.94 0-7.5 1.437-10 3.625v-6c.5.25 1.38.437 2 .437 2.75 0 5-2.25 5-5 0-1.437-.94-3.187-2.06-4.062 1.12-.813 2-2.563 2-4a4.91 4.91 0 0 0-4.94-4.938c-1.44 0-3.19.875-4 2-.87-1.125-2.62-2-4.06-2a4.91 4.91 0 0 0-4.94 4.938c0 1.437.88 3.187 2 4-1.12.875-2 2.625-2 4.062 0 2.75 2.19 5 4.94 5 .62 0 1.5-.25 2.06-.437v6c-2.56-2.188-6.12-3.625-10.06-3.625H1011c-.62 0-1.06.5-1 1.062.63 6.125 6.63 10.938 13.94 10.938h4.06c7.31 0 13.31-4.813 13.94-10.938.06-.562-.38-1.062-1-1.062zm-14.94-8c-1.69 0-3-1.313-3-3a3 3 0 0 1 3-3c1.63 0 3 1.375 3 3 0 1.687-1.37 3-3 3zM1769.94 828.222H1767c-3.94 0-7.5 1.437-10 3.625v-6c.5.25 1.38.437 2 .437 2.75 0 5-2.25 5-5 0-1.437-.94-3.187-2.06-4.062 1.12-.813 2-2.563 2-4a4.91 4.91 0 0 0-4.94-4.938c-1.44 0-3.19.875-4 2-.87-1.125-2.62-2-4.06-2a4.91 4.91 0 0 0-4.94 4.938c0 1.437.88 3.187 2 4-1.12.875-2 2.625-2 4.062 0 2.75 2.19 5 4.94 5 .62 0 1.5-.25 2.06-.437v6c-2.56-2.188-6.12-3.625-10.06-3.625H1740c-.62 0-1.06.5-1 1.062.63 6.125 6.63 10.938 13.94 10.938h4.06c7.31 0 13.31-4.813 13.94-10.938.06-.562-.38-1.062-1-1.062zm-14.94-8c-1.69 0-3-1.313-3-3a3 3 0 0 1 3-3c1.63 0 3 1.375 3 3 0 1.687-1.37 3-3 3zM1096.94 828.222H1094c-3.94 0-7.5 1.437-10 3.625v-6c.5.25 1.38.437 2 .437 2.75 0 5-2.25 5-5 0-1.437-.94-3.187-2.06-4.062 1.12-.813 2-2.563 2-4a4.91 4.91 0 0 0-4.94-4.938c-1.44 0-3.19.875-4 2-.87-1.125-2.62-2-4.06-2a4.91 4.91 0 0 0-4.94 4.938c0 1.437.88 3.187 2 4-1.12.875-2 2.625-2 4.062 0 2.75 2.19 5 4.94 5 .62 0 1.5-.25 2.06-.437v6c-2.56-2.188-6.12-3.625-10.06-3.625H1067c-.62 0-1.06.5-1 1.062.63 6.125 6.63 10.938 13.94 10.938h4.06c7.31 0 13.31-4.813 13.94-10.938.06-.562-.38-1.062-1-1.062zm-14.94-8c-1.69 0-3-1.313-3-3a3 3 0 0 1 3-3c1.63 0 3 1.375 3 3 0 1.687-1.37 3-3 3zM1825.94 828.222H1823c-3.94 0-7.5 1.437-10 3.625v-6c.5.25 1.38.437 2 .437 2.75 0 5-2.25 5-5 0-1.437-.94-3.187-2.06-4.062 1.12-.813 2-2.563 2-4a4.91 4.91 0 0 0-4.94-4.938c-1.44 0-3.19.875-4 2-.87-1.125-2.62-2-4.06-2a4.91 4.91 0 0 0-4.94 4.938c0 1.437.88 3.187 2 4-1.12.875-2 2.625-2 4.062 0 2.75 2.19 5 4.94 5 .62 0 1.5-.25 2.06-.437v6c-2.56-2.188-6.12-3.625-10.06-3.625H1796c-.62 0-1.06.5-1 1.062.63 6.125 6.63 10.938 13.94 10.938h4.06c7.31 0 13.31-4.813 13.94-10.938.06-.562-.38-1.062-1-1.062zm-14.94-8c-1.69 0-3-1.313-3-3a3 3 0 0 1 3-3c1.63 0 3 1.375 3 3 0 1.687-1.37 3-3 3zM984.938 828.222H982c-3.937 0-7.5 1.437-10 3.625v-6c.5.25 1.375.437 2 .437 2.75 0 5-2.25 5-5 0-1.437-.937-3.187-2.062-4.062 1.125-.813 2-2.563 2-4a4.91 4.91 0 0 0-4.938-4.938c-1.437 0-3.187.875-4 2-.875-1.125-2.625-2-4.062-2a4.91 4.91 0 0 0-4.938 4.938c0 1.437.875 3.187 2 4-1.125.875-2 2.625-2 4.062 0 2.75 2.188 5 4.938 5 .625 0 1.5-.25 2.062-.437v6c-2.562-2.188-6.125-3.625-10.062-3.625H955c-.625 0-1.062.5-1 1.062.625 6.125 6.625 10.938 13.938 10.938H972c7.313 0 13.313-4.813 13.938-10.938.062-.562-.375-1.062-1-1.062zm-14.938-8c-1.687 0-3-1.313-3-3 0-1.625 1.313-3 3-3 1.625 0 3 1.375 3 3 0 1.687-1.375 3-3 3zM1713.94 828.222H1711c-3.94 0-7.5 1.437-10 3.625v-6c.5.25 1.38.437 2 .437 2.75 0 5-2.25 5-5 0-1.437-.94-3.187-2.06-4.062 1.12-.813 2-2.563 2-4a4.91 4.91 0 0 0-4.94-4.938c-1.44 0-3.19.875-4 2-.87-1.125-2.62-2-4.06-2a4.91 4.91 0 0 0-4.94 4.938c0 1.437.88 3.187 2 4-1.12.875-2 2.625-2 4.062 0 2.75 2.19 5 4.94 5 .62 0 1.5-.25 2.06-.437v6c-2.56-2.188-6.12-3.625-10.06-3.625H1684c-.62 0-1.06.5-1 1.062.63 6.125 6.63 10.938 13.94 10.938h4.06c7.31 0 13.31-4.813 13.94-10.938.06-.562-.38-1.062-1-1.062zm-14.94-8c-1.69 0-3-1.313-3-3a3 3 0 0 1 3-3c1.63 0 3 1.375 3 3 0 1.687-1.37 3-3 3zM928.938 828.222H926c-3.937 0-7.5 1.437-10 3.625v-6c.5.25 1.375.437 2 .437 2.75 0 5-2.25 5-5 0-1.437-.937-3.187-2.062-4.062 1.125-.813 2-2.563 2-4a4.91 4.91 0 0 0-4.938-4.938c-1.437 0-3.187.875-4 2-.875-1.125-2.625-2-4.062-2a4.91 4.91 0 0 0-4.938 4.938c0 1.437.875 3.187 2 4-1.125.875-2 2.625-2 4.062 0 2.75 2.188 5 4.938 5 .625 0 1.5-.25 2.062-.437v6c-2.562-2.188-6.125-3.625-10.062-3.625H899c-.625 0-1.062.5-1 1.062.625 6.125 6.625 10.938 13.938 10.938H916c7.313 0 13.313-4.813 13.938-10.938.062-.562-.375-1.062-1-1.062zm-14.938-8c-1.687 0-3-1.313-3-3 0-1.625 1.313-3 3-3 1.625 0 3 1.375 3 3 0 1.687-1.375 3-3 3zM814.75 838.198l-22.5-26h9c6.5 0 10-7.25 6-12l-23.75-28h11c5.5 0 8.25-5.5 5-9.25l-33.75-36.5c-2.5-2.75-7.25-2.75-9.75 0l-33.75 36.5c-3.25 3.75-.5 9.25 5 9.25h11.25l-23.75 28c-4.25 4.75-.75 12 5.75 12h9l-22.5 26c-4.75 5.5-1 14 6.25 14h95.25c7.25 0 11-8.5 6.25-14zM2308.75 838.198l-22.5-26h9c6.5 0 10-7.25 6-12l-23.75-28h11c5.5 0 8.25-5.5 5-9.25l-33.75-36.5c-2.5-2.75-7.25-2.75-9.75 0l-33.75 36.5c-3.25 3.75-.5 9.25 5 9.25h11.25l-23.75 28c-4.25 4.75-.75 12 5.75 12h9l-22.5 26c-4.75 5.5-1 14 6.25 14h95.25c7.25 0 11-8.5 6.25-14zM1982.75 838.198l-22.5-26h9c6.5 0 10-7.25 6-12l-23.75-28h11c5.5 0 8.25-5.5 5-9.25l-33.75-36.5c-2.5-2.75-7.25-2.75-9.75 0l-33.75 36.5c-3.25 3.75-.5 9.25 5 9.25h11.25l-23.75 28c-4.25 4.75-.75 12 5.75 12h9l-22.5 26c-4.75 5.5-1 14 6.25 14h95.25c7.25 0 11-8.5 6.25-14zM442.75 838.198l-22.5-26h9c6.5 0 10-7.25 6-12l-23.75-28h11c5.5 0 8.25-5.5 5-9.25l-33.75-36.5c-2.5-2.75-7.25-2.75-9.75 0l-33.75 36.5c-3.25 3.75-.5 9.25 5 9.25h11.25l-23.75 28c-4.25 4.75-.75 12 5.75 12h9l-22.5 26c-4.75 5.5-1 14 6.25 14h95.25c7.25 0 11-8.5 6.25-14zM1657.94 828.222H1655c-3.94 0-7.5 1.437-10 3.625v-6c.5.25 1.38.437 2 .437 2.75 0 5-2.25 5-5 0-1.437-.94-3.187-2.06-4.062 1.12-.813 2-2.563 2-4a4.91 4.91 0 0 0-4.94-4.938c-1.44 0-3.19.875-4 2-.87-1.125-2.62-2-4.06-2a4.91 4.91 0 0 0-4.94 4.938c0 1.437.88 3.187 2 4-1.12.875-2 2.625-2 4.062 0 2.75 2.19 5 4.94 5 .62 0 1.5-.25 2.06-.437v6c-2.56-2.188-6.12-3.625-10.06-3.625H1628c-.62 0-1.06.5-1 1.062.63 6.125 6.63 10.938 13.94 10.938h4.06c7.31 0 13.31-4.813 13.94-10.938.06-.562-.38-1.062-1-1.062zm-14.94-8c-1.69 0-3-1.313-3-3a3 3 0 0 1 3-3c1.63 0 3 1.375 3 3 0 1.687-1.37 3-3 3z" fill="#fff"/><path d="M718.516 392.016c.562-1.546.984-3.093.984-4.921 0-7.454-6.047-13.5-13.5-13.5-2.812 0-5.484.843-7.594 2.39-3.797-6.75-11.109-11.39-19.406-11.39-12.516 0-22.5 10.125-22.5 22.5v1.265c-7.875 2.672-13.5 10.266-13.5 18.985 0 11.25 9 20.25 20.25 20.25H715c9.844 0 18-8.016 18-18 0-8.579-6.188-15.891-14.484-17.579zM259.516 269.982c.562-1.547.984-3.094.984-4.922 0-7.453-6.047-13.5-13.5-13.5-2.812 0-5.484.844-7.594 2.391-3.797-6.75-11.109-11.391-19.406-11.391-12.516 0-22.5 10.125-22.5 22.5v1.266c-7.875 2.671-13.5 10.265-13.5 18.984 0 11.25 9 20.25 20.25 20.25H256c9.844 0 18-8.016 18-18 0-8.578-6.188-15.891-14.484-17.578zM523.187 490.256l-4.062 8.313-9.188 1.312c-1.625.25-2.25 2.25-1.062 3.438l6.562 6.437-1.562 9.063c-.25 1.625 1.5 2.875 2.937 2.125l8.188-4.313 8.125 4.313c1.437.75 3.187-.5 2.937-2.125l-1.562-9.063 6.562-6.437c1.188-1.188.563-3.188-1.062-3.438l-9.125-1.312-4.125-8.313c-.688-1.437-2.813-1.5-3.563 0zM375.187 361.22l-4.062 8.312-9.188 1.313c-1.625.25-2.25 2.25-1.062 3.437l6.562 6.438-1.562 9.062c-.25 1.625 1.5 2.875 2.937 2.125l8.188-4.312 8.125 4.312c1.437.75 3.187-.5 2.937-2.125l-1.562-9.062 6.562-6.438c1.188-1.187.563-3.187-1.062-3.437l-9.125-1.313-4.125-8.312c-.688-1.438-2.813-1.5-3.563 0z" fill="#49B997"/><path d="M533.187 226.181l-4.062 8.313-9.188 1.312c-1.625.25-2.25 2.25-1.062 3.438l6.562 6.437-1.562 9.063c-.25 1.625 1.5 2.875 2.937 2.125l8.188-4.313 8.125 4.313c1.437.75 3.187-.5 2.937-2.125l-1.562-9.063 6.562-6.437c1.188-1.188.563-3.188-1.062-3.438l-9.125-1.312-4.125-8.313c-.688-1.437-2.813-1.5-3.563 0zM209.187 526.266l-4.062 8.313-9.188 1.312c-1.625.25-2.25 2.25-1.062 3.438l6.562 6.437-1.562 9.063c-.25 1.625 1.5 2.875 2.937 2.125l8.188-4.313 8.125 4.313c1.437.75 3.187-.5 2.937-2.125l-1.562-9.063 6.562-6.437c1.188-1.188.563-3.188-1.062-3.438l-9.125-1.312-4.125-8.313c-.688-1.437-2.813-1.5-3.563 0z" fill="#fff"/><path d="M2007.52 266.981c.56-1.547.98-3.094.98-4.922 0-7.453-6.05-13.5-13.5-13.5-2.81 0-5.48.844-7.59 2.391-3.8-6.75-11.11-11.391-19.41-11.391-12.52 0-22.5 10.125-22.5 22.5v1.266c-7.88 2.672-13.5 10.265-13.5 18.984 0 11.25 9 20.25 20.25 20.25H2004c9.84 0 18-8.016 18-18 0-8.578-6.19-15.891-14.48-17.578zM2381.52 457.035c.56-1.547.98-3.094.98-4.922 0-7.453-6.05-13.5-13.5-13.5-2.81 0-5.48.844-7.59 2.391-3.8-6.75-11.11-11.391-19.41-11.391-12.52 0-22.5 10.125-22.5 22.5v1.266c-7.88 2.672-13.5 10.265-13.5 18.984 0 11.25 9 20.25 20.25 20.25H2378c9.84 0 18-8.016 18-18 0-8.578-6.19-15.891-14.48-17.578zM2020.19 545.272l-4.06 8.312-9.19 1.313c-1.63.25-2.25 2.25-1.06 3.437l6.56 6.438-1.56 9.062c-.25 1.625 1.5 2.875 2.93 2.125l8.19-4.312 8.13 4.312c1.43.75 3.18-.5 2.93-2.125l-1.56-9.062 6.56-6.438c1.19-1.187.57-3.187-1.06-3.437l-9.12-1.313-4.13-8.312c-.69-1.438-2.81-1.5-3.56 0zM2163.63 501.258c-1.79 1.79-1.72 4.641 0 6.365 1.79 1.79 4.58 1.79 6.37 0 1.72-1.724 1.79-4.575 0-6.365-1.73-1.724-4.64-1.724-6.37 0zm23.33-21.216c.53-.531.6-1.525 0-2.122l-3.44-3.447c-.4-.398-1.2-.531-1.73-.266l-23 10.675c-5.03 2.387-9.27 6.365-11.26 11.536-5.44 13.658 4.44 22.874 4.44 22.874s9.28 9.945 22.93 4.508c5.17-1.989 9.15-6.232 11.53-11.271l.67-1.458.46.066c1.19.133 2.78-.53 3.65-1.392l4.24-4.244c1.72-1.723 1.79-4.574.06-6.298-.53-.531-1.59-1.061-2.31-1.26l3.91-8.42c.26-.531.13-1.326-.27-1.724l-3.45-3.448c-.59-.596-1.59-.53-2.12 0l-9.54 9.548-4.31-4.31 9.54-9.547zm-28.63 35.007a1.48 1.48 0 0 1-2.12 0c-.53-.531-.6-1.525 0-2.122.53-.53 1.59-.53 2.12 0 .6.597.53 1.591 0 2.122zm8.48 4.243c-.59.597-1.52.597-2.12 0-.53-.531-.59-1.525 0-2.122.53-.53 1.59-.53 2.12 0 .6.597.54 1.591 0 2.122zm-12.72-12.73c-.6.597-1.53.597-2.12 0-.53-.53-.6-1.525 0-2.121.53-.531 1.59-.531 2.12 0 .6.596.53 1.591 0 2.121zm18.03 3.183c-2.99 2.983-7.62 2.983-10.61 0-2.91-2.918-2.98-7.625 0-10.609 2.92-2.917 7.69-2.917 10.61 0 2.91 3.05 2.91 7.691 0 10.609zM2286.19 607.29l-4.06 8.312-9.19 1.313c-1.63.25-2.25 2.25-1.06 3.437l6.56 6.438-1.56 9.062c-.25 1.625 1.5 2.875 2.93 2.125l8.19-4.312 8.13 4.312c1.43.75 3.18-.5 2.93-2.125l-1.56-9.062 6.56-6.438c1.19-1.187.57-3.187-1.06-3.437l-9.12-1.313-4.13-8.312c-.69-1.438-2.81-1.5-3.56 0zM2432.19 250.188l-4.06 8.313-9.19 1.312c-1.63.25-2.25 2.25-1.06 3.438l6.56 6.437-1.56 9.063c-.25 1.625 1.5 2.875 2.93 2.125l8.19-4.313 8.13 4.313c1.43.75 3.18-.5 2.93-2.125l-1.56-9.063 6.56-6.437c1.19-1.188.57-3.188-1.06-3.438l-9.12-1.312-4.13-8.313c-.69-1.437-2.81-1.5-3.56 0z" fill="#49B997"/><path d="M2163.19 366.221l-4.06 8.313-9.19 1.312c-1.63.25-2.25 2.25-1.06 3.438l6.56 6.437-1.56 9.063c-.25 1.625 1.5 2.875 2.93 2.125l8.19-4.313 8.13 4.313c1.43.75 3.18-.5 2.93-2.125l-1.56-9.063 6.56-6.437c1.19-1.188.57-3.188-1.06-3.438l-9.12-1.312-4.13-8.313c-.69-1.437-2.81-1.5-3.56 0zM2555.19 457.247l-4.06 8.312-9.19 1.313c-1.63.25-2.25 2.25-1.06 3.437l6.56 6.438-1.56 9.062c-.25 1.625 1.5 2.875 2.93 2.125l8.19-4.312 8.13 4.312c1.43.75 3.18-.5 2.93-2.125l-1.56-9.062 6.56-6.438c1.19-1.187.57-3.187-1.06-3.437l-9.12-1.313-4.13-8.312c-.69-1.438-2.81-1.5-3.56 0z" fill="#fff"/></g><defs><clipPath id="clip0"><path fill="#fff" d="M0 0h2667v840H0z"/></clipPath></defs></svg>